<?xml version="1.0" encoding="iso-8859-1"?>
<!-- Generator: Adobe Illustrator 26.3.1, SVG Export Plug-In . SVG Version: 6.00 Build 0)  -->
<svg version="1.1" id="Layer_1" xmlns="http://www.w3.org/2000/svg" xmlns:xlink="http://www.w3.org/1999/xlink" x="0px" y="0px"
	 width="48px" height="48px" viewBox="0 0 48 48" style="enable-background:new 0 0 48 48;" xml:space="preserve">
<circle style="fill:#2A233B;" cx="24" cy="24" r="24"/>
<path style="fill:#00ADEE;" d="M25.11,33.439h-10.25c-0.787,0-1.427-0.64-1.427-1.427v-1.427c0-3.948,3.201-7.149,7.149-7.149
	c1.92,0,3.654,0.767,4.941,2.007l1.02-1.02c-0.827-0.807-1.814-1.447-2.914-1.861c1.607-1.014,2.674-2.801,2.674-4.841
	C26.291,14.561,23.73,12,20.576,12s-5.715,2.561-5.715,5.715c0,2.041,1.067,3.828,2.674,4.841C14.301,23.783,12,26.917,12,30.579
	v1.427c0,1.58,1.28,2.861,2.861,2.861h11.43c0.08,0,0.153-0.013,0.227-0.02l-1.414-1.414L25.11,33.439z M16.288,17.715
	c0-2.367,1.92-4.288,4.288-4.288c2.367,0,4.288,1.92,4.288,4.288c0,2.367-1.92,4.288-4.288,4.288
	C18.208,22.003,16.288,20.082,16.288,17.715z"/>
<path style="fill:#00ADEE;" d="M34.06,27.964l0.907-1.514l-1.06-1.06l-1.507,0.907c-0.167-0.087-0.34-0.153-0.513-0.213l-0.42-1.687
	h-1.5l-0.42,1.687c-0.193,0.06-0.374,0.14-0.554,0.233l-1.54-0.927l-1.06,1.06l0.66,1.1l0.28,0.474
	c-0.013,0.033-0.027,0.073-0.04,0.107c-0.047,0.113-0.1,0.227-0.14,0.34l-1.687,0.42v1.5l1.687,0.42
	c0.047,0.153,0.107,0.3,0.173,0.44l-0.94,1.567l1.06,1.06l1.52-0.914c0.18,0.093,0.373,0.18,0.567,0.24l0.42,1.687h1.5l0.42-1.687
	c0.187-0.06,0.36-0.133,0.534-0.22l1.494,0.894l1.06-1.06l-0.9-1.5c0.087-0.173,0.16-0.354,0.22-0.54l1.687-0.387l0.033-1.5
	l-1.754-0.473c-0.053-0.16-0.12-0.313-0.193-0.46L34.06,27.964z M30.705,31.899c-0.147,0-0.293-0.013-0.44-0.04
	c-0.427-0.08-0.814-0.293-1.12-0.587c-0.327-0.313-0.56-0.727-0.647-1.18c-0.12-0.64,0.033-1.24,0.36-1.714
	c0.407-0.587,1.08-0.974,1.854-0.974c0.147,0,0.287,0.013,0.44,0.04c0.88,0.167,1.6,0.887,1.767,1.767
	c0.273,1.434-0.82,2.694-2.207,2.694L30.705,31.899z"/>
</svg>
