<?xml version="1.0" encoding="iso-8859-1"?>
<!-- Generator: Adobe Illustrator 26.3.1, SVG Export Plug-In . SVG Version: 6.00 Build 0)  -->
<svg version="1.1" id="Layer_1" xmlns="http://www.w3.org/2000/svg" xmlns:xlink="http://www.w3.org/1999/xlink" x="0px" y="0px"
	 width="40px" height="40px" viewBox="0 0 40 40" style="enable-background:new 0 0 40 40;" xml:space="preserve">
<g>
	<path style="fill:#FFFFFF;" d="M20,1.333c10.293,0,18.667,8.374,18.667,18.667S30.293,38.667,20,38.667S1.333,30.293,1.333,20
		S9.707,1.333,20,1.333 M20,0C8.972,0,0,8.972,0,20c0,11.028,8.972,20,20,20c11.028,0,20-8.972,20-20C40,8.972,31.028,0,20,0L20,0z"
		/>
</g>
<path style="fill:#FFFFFF;" d="M26.221,18.938h-5.093l-0.001-5.093c0-0.434-0.352-0.785-0.785-0.785h0
	c-0.434,0-0.785,0.352-0.785,0.785v5.095l-5.095-0.001c-0.434,0-0.787,0.352-0.786,0.787v0c0,0.434,0.352,0.785,0.786,0.785
	l5.093,0.001l0.001,5.095c0,0.434,0.352,0.786,0.787,0.786h0c0.434,0,0.785-0.352,0.785-0.786v-5.095l5.093-0.001
	c0.434,0,0.786-0.352,0.786-0.785v0C27.007,19.29,26.655,18.938,26.221,18.938z"/>
</svg>
