<?xml version="1.0" encoding="iso-8859-1"?>
<!-- Generator: Adobe Illustrator 26.3.1, SVG Export Plug-In . SVG Version: 6.00 Build 0)  -->
<svg version="1.1" id="Layer_1" xmlns="http://www.w3.org/2000/svg" xmlns:xlink="http://www.w3.org/1999/xlink" x="0px" y="0px"
	 width="48px" height="48px" viewBox="0 0 48 48" style="enable-background:new 0 0 48 48;" xml:space="preserve">
<circle style="fill:#2A233B;" cx="24" cy="24" r="24"/>
<g>
	<path style="fill:#00ADEE;" d="M21.629,33.365c-0.12-0.1-0.239-0.201-0.358-0.302c-1.038-0.882-2.02-1.829-2.784-2.923
		c-0.997-1.427-2.233-3.559-1.158-5.262c0.772-1.223,2.309-1.536,3.596-1.007c0.524,0.215,0.985,0.465,1.414,0.831
		c0.305,0.261,0.992,0.859,1.272,1.199c1.13-1.139,2.83-2.651,4.57-2.475c1.099,0.111,1.821,1.056,1.94,2.112
		c0.194,1.721-0.904,3.425-1.844,4.777c-0.734,1.055-2.126,2.349-2.234,2.472c0.253,0.027,1.253-0.72,1.62-0.998
		c0.666-0.505,1.299-1.042,1.851-1.677c1.08-1.24,2.074-2.653,2.24-4.338c0.109-1.102,0.013-2.148-0.609-3.108
		c-0.781-1.206-2.17-1.855-3.599-1.692c-1.459,0.166-2.602,1.061-3.673,1.986c0,0-1.082-0.924-1.18-0.997
		c-0.461-0.341-0.96-0.633-1.49-0.852c-1.064-0.44-2.244-0.558-3.357-0.234c-1.946,0.567-3.443,2.355-3.622,4.379
		c-0.191,2.164,1.027,4.206,2.307,5.847c1.082,1.387,2.441,2.543,3.858,3.63c0.411,0.315,0.824,0.625,1.24,0.932
		c0.022,0.017,0.045,0.033,0.067,0.05v-2.293C21.674,33.403,21.652,33.384,21.629,33.365z"/>
	<path style="fill:#00ACED;" d="M21.696,33.422v2.293c0.022,0.017,0.045,0.033,0.067,0.05v-2.287
		C21.741,33.459,21.719,33.44,21.696,33.422z"/>
	<path style="fill:#00ABEC;" d="M21.764,33.477v2.287c0.022,0.017,0.045,0.033,0.067,0.05v-2.282
		C21.808,33.513,21.786,33.496,21.764,33.477z"/>
	<path style="fill:#00AAEB;" d="M21.831,33.532v2.282c0.022,0.017,0.045,0.033,0.067,0.05v-2.278
		C21.876,33.568,21.853,33.55,21.831,33.532z"/>
	<path style="fill:#00A9EA;" d="M21.898,33.586v2.278c0.022,0.017,0.045,0.033,0.067,0.05V33.64
		C21.943,33.622,21.92,33.604,21.898,33.586z"/>
	<path style="fill:#00A8E9;" d="M21.965,33.64v2.274c0.023,0.017,0.045,0.033,0.067,0.05v-2.269
		C22.01,33.676,21.988,33.658,21.965,33.64z"/>
	<path style="fill:#00A7E8;" d="M22.033,33.694v2.269c0.022,0.017,0.045,0.033,0.067,0.05v-2.265
		C22.077,33.73,22.055,33.712,22.033,33.694z"/>
	<path style="fill:#00A6E7;" d="M22.1,33.749v2.265c0.023,0.017,0.045,0.033,0.067,0.05v-2.26
		C22.145,33.785,22.122,33.767,22.1,33.749z"/>
	<path style="fill:#00A5E6;" d="M22.167,33.803v2.26c0.023,0.017,0.045,0.033,0.067,0.05v-2.256
		C22.212,33.839,22.19,33.821,22.167,33.803z"/>
	<path style="fill:#00A4E5;" d="M22.234,33.857v2.256c0.022,0.017,0.045,0.033,0.067,0.05v-2.251
		C22.279,33.893,22.257,33.875,22.234,33.857z"/>
	<path style="fill:#00A3E4;" d="M22.302,33.911v2.251c0.022,0.017,0.045,0.033,0.067,0.05v-2.247
		C22.346,33.948,22.324,33.929,22.302,33.911z"/>
	<path style="fill:#00A2E3;" d="M22.369,33.966v2.247c0.022,0.017,0.045,0.033,0.067,0.05V34.02
		C22.414,34.002,22.391,33.983,22.369,33.966z"/>
	<path style="fill:#00A2E2;" d="M22.436,34.02v2.242c0.022,0.017,0.045,0.033,0.067,0.05v-2.238
		C22.481,34.056,22.459,34.038,22.436,34.02z"/>
	<path style="fill:#00A1E1;" d="M22.503,34.073v2.238c0.022,0.017,0.045,0.033,0.067,0.05v-2.235
		C22.548,34.109,22.526,34.091,22.503,34.073z"/>
	<path style="fill:#00A0E0;" d="M22.571,34.127v2.235c0.022,0.017,0.045,0.033,0.067,0.05V34.18
		C22.615,34.162,22.593,34.144,22.571,34.127z"/>
	<path style="fill:#009FDF;" d="M22.638,34.18v2.231c0.022,0.017,0.045,0.033,0.067,0.05v-2.228
		C22.683,34.215,22.66,34.198,22.638,34.18z"/>
	<path style="fill:#009EDE;" d="M22.705,34.233v2.228c0.022,0.017,0.045,0.033,0.067,0.05v-2.225
		C22.75,34.268,22.728,34.251,22.705,34.233z"/>
	<path style="fill:#009DDD;" d="M22.772,34.286v2.225c0.022,0.017,0.045,0.033,0.067,0.05V34.34
		C22.817,34.322,22.795,34.304,22.772,34.286z"/>
	<path style="fill:#009CDC;" d="M22.84,34.339v2.221c0.022,0.017,0.045,0.033,0.067,0.05v-2.218
		C22.884,34.375,22.862,34.357,22.84,34.339z"/>
	<path style="fill:#009BDB;" d="M22.907,34.393v2.218c0.023,0.017,0.045,0.034,0.067,0.051v-2.216
		C22.952,34.428,22.929,34.41,22.907,34.393z"/>
	<path style="fill:#009ADA;" d="M22.974,34.446v2.216c0.023,0.017,0.045,0.034,0.067,0.051v-2.214
		C23.019,34.481,22.996,34.463,22.974,34.446z"/>
	<path style="fill:#0099D9;" d="M23.041,34.499v2.214c0.023,0.017,0.045,0.034,0.067,0.051v-2.212
		C23.086,34.534,23.064,34.517,23.041,34.499z"/>
	<path style="fill:#0098D8;" d="M23.109,34.552v2.212c0.023,0.017,0.045,0.034,0.067,0.051v-2.21
		C23.153,34.588,23.131,34.57,23.109,34.552z"/>
	<path style="fill:#0097D7;" d="M23.176,34.605v2.21c0.023,0.017,0.045,0.034,0.067,0.051v-2.208
		C23.22,34.641,23.198,34.623,23.176,34.605z"/>
	<path style="fill:#0096D6;" d="M23.243,34.659v2.208c0.023,0.017,0.045,0.034,0.067,0.051v-2.206
		C23.288,34.694,23.266,34.677,23.243,34.659z"/>
	<path style="fill:#0095D5;" d="M23.31,34.712v2.206c0.022,0.017,0.045,0.034,0.067,0.051v-2.204
		C23.355,34.748,23.333,34.73,23.31,34.712z"/>
	<path style="fill:#0094D4;" d="M23.377,34.766v2.204c0.022,0.017,0.045,0.034,0.067,0.051V34.82
		C23.422,34.801,23.4,34.784,23.377,34.766z"/>
	<path style="fill:#0093D3;" d="M23.445,34.819v2.201c0.022,0.017,0.045,0.034,0.067,0.051v-2.199
		C23.49,34.855,23.467,34.837,23.445,34.819z"/>
	<path style="fill:#0092D2;" d="M23.512,34.873v2.199c0.022,0.017,0.045,0.034,0.067,0.051v-2.197
		C23.557,34.908,23.534,34.891,23.512,34.873z"/>
	<path style="fill:#0091D1;" d="M23.579,34.926v2.197c0.022,0.017,0.045,0.034,0.067,0.051V34.98
		C23.624,34.962,23.602,34.944,23.579,34.926z"/>
	<path style="fill:#0090D0;" d="M23.646,34.98v2.195c0.022,0.017,0.045,0.034,0.067,0.051v-2.192
		C23.691,35.015,23.669,34.998,23.646,34.98z"/>
	<path style="fill:#008FCF;" d="M23.714,35.033v2.192c0.022,0.017,0.045,0.034,0.067,0.051v-2.19
		C23.759,35.069,23.736,35.051,23.714,35.033z"/>
	<path style="fill:#008ECE;" d="M23.781,35.087v2.19c0.022,0.017,0.045,0.034,0.067,0.051V35.14
		C23.826,35.122,23.803,35.105,23.781,35.087z"/>
	<path style="fill:#008DCD;" d="M23.906,35.187c-0.019-0.015-0.039-0.031-0.058-0.046v2.188l0,0
		c0.022-0.014,0.044-0.027,0.067-0.041v-2.106C23.912,35.183,23.909,35.185,23.906,35.187z"/>
	<path style="fill:#008DCC;" d="M23.915,35.181v2.106c0.023-0.014,0.045-0.028,0.067-0.041V35.14
		C23.96,35.154,23.938,35.168,23.915,35.181z"/>
	<path style="fill:#008CCA;" d="M23.983,35.14v2.106c0.022-0.014,0.045-0.028,0.067-0.041V35.1
		C24.027,35.113,24.005,35.127,23.983,35.14z"/>
	<path style="fill:#008BC9;" d="M24.05,35.1v2.105c0.022-0.014,0.045-0.028,0.067-0.041V35.06
		C24.095,35.073,24.072,35.086,24.05,35.1z"/>
	<path style="fill:#008AC8;" d="M24.117,35.059v2.104c0.022-0.014,0.045-0.028,0.067-0.041v-2.104
		C24.162,35.032,24.14,35.046,24.117,35.059z"/>
	<path style="fill:#0089C7;" d="M24.184,35.019v2.104c0.022-0.014,0.045-0.027,0.067-0.041v-2.103
		C24.229,34.992,24.207,35.005,24.184,35.019z"/>
	<path style="fill:#0088C6;" d="M24.252,34.978v2.103c0.022-0.014,0.045-0.027,0.067-0.041v-2.103
		C24.297,34.951,24.274,34.964,24.252,34.978z"/>
	<path style="fill:#0087C5;" d="M24.319,34.937v2.103c0.022-0.014,0.045-0.027,0.067-0.041v-2.102
		C24.364,34.91,24.341,34.924,24.319,34.937z"/>
	<path style="fill:#0086C4;" d="M24.386,34.897v2.102c0.022-0.014,0.045-0.027,0.067-0.041v-2.101
		C24.431,34.87,24.409,34.883,24.386,34.897z"/>
	<path style="fill:#0085C3;" d="M24.453,34.856v2.101c0.023-0.014,0.045-0.028,0.067-0.042v-2.101
		C24.498,34.828,24.476,34.842,24.453,34.856z"/>
	<path style="fill:#0084C2;" d="M24.521,34.814v2.101c0.023-0.014,0.045-0.028,0.067-0.043v-2.1
		C24.565,34.786,24.543,34.8,24.521,34.814z"/>
	<path style="fill:#0083C1;" d="M24.588,34.772v2.1c0.022-0.014,0.045-0.029,0.067-0.043V34.73
		C24.633,34.744,24.61,34.758,24.588,34.772z"/>
	<path style="fill:#0082C0;" d="M24.655,34.731v2.099c0.022-0.014,0.045-0.028,0.067-0.043v-2.098
		C24.7,34.703,24.678,34.717,24.655,34.731z"/>
	<path style="fill:#0081BF;" d="M24.722,34.689v2.098c0.022-0.014,0.045-0.028,0.067-0.043v-2.097
		C24.767,34.661,24.745,34.675,24.722,34.689z"/>
	<path style="fill:#0080BE;" d="M24.79,34.647v2.097c0.022-0.014,0.045-0.028,0.067-0.043v-2.097
		C24.835,34.619,24.812,34.633,24.79,34.647z"/>
	<path style="fill:#007FBD;" d="M24.857,34.605v2.097c0.022-0.014,0.045-0.028,0.067-0.043v-2.096
		C24.902,34.577,24.879,34.591,24.857,34.605z"/>
	<path style="fill:#007EBC;" d="M24.924,34.563v2.096c0.022-0.014,0.045-0.028,0.067-0.043v-2.095
		C24.969,34.535,24.947,34.549,24.924,34.563z"/>
	<path style="fill:#007DBB;" d="M24.991,34.521v2.095c0.022-0.014,0.045-0.028,0.067-0.043v-2.096
		C25.036,34.492,25.014,34.507,24.991,34.521z"/>
	<path style="fill:#007CBA;" d="M25.059,34.478v2.096c0.023-0.015,0.045-0.029,0.067-0.044v-2.095
		C25.103,34.449,25.081,34.463,25.059,34.478z"/>
	<path style="fill:#007BB9;" d="M25.126,34.434v2.095c0.023-0.015,0.045-0.03,0.067-0.044v-2.094
		C25.171,34.406,25.148,34.42,25.126,34.434z"/>
	<path style="fill:#007AB8;" d="M25.193,34.391v2.094c0.022-0.015,0.045-0.03,0.067-0.044v-2.093
		C25.238,34.362,25.216,34.377,25.193,34.391z"/>
	<path style="fill:#0079B7;" d="M25.26,34.348v2.093c0.022-0.015,0.045-0.03,0.067-0.044v-2.092
		C25.305,34.319,25.283,34.333,25.26,34.348z"/>
	<path style="fill:#0078B6;" d="M25.328,34.305v2.092c0.022-0.015,0.045-0.029,0.067-0.044v-2.091
		C25.373,34.276,25.35,34.29,25.328,34.305z"/>
	<path style="fill:#0077B5;" d="M25.395,34.261v2.091c0.022-0.015,0.045-0.029,0.067-0.044v-2.09
		C25.44,34.233,25.417,34.247,25.395,34.261z"/>
	<path style="fill:#0077B4;" d="M25.462,34.218v2.09c0.022-0.015,0.045-0.029,0.067-0.044v-2.091
		C25.507,34.189,25.485,34.203,25.462,34.218z"/>
	<path style="fill:#0076B3;" d="M25.529,34.174v2.091c0.022-0.015,0.045-0.029,0.067-0.044V34.13
		C25.574,34.144,25.552,34.159,25.529,34.174z"/>
	<path style="fill:#0075B2;" d="M25.597,34.129v2.091c0.022-0.015,0.045-0.029,0.067-0.044v-2.092
		C25.641,34.099,25.619,34.114,25.597,34.129z"/>
	<path style="fill:#0074B1;" d="M25.664,34.084v2.092c0.023-0.015,0.045-0.031,0.067-0.046v-2.091
		C25.709,34.054,25.686,34.069,25.664,34.084z"/>
	<path style="fill:#0073B0;" d="M25.731,34.039v2.091c0.023-0.015,0.045-0.031,0.067-0.046v-2.09
		C25.776,34.009,25.754,34.024,25.731,34.039z"/>
	<path style="fill:#0072AF;" d="M25.798,33.993v2.09c0.022-0.015,0.045-0.031,0.067-0.046v-2.089
		C25.843,33.964,25.821,33.978,25.798,33.993z"/>
	<path style="fill:#0071AE;" d="M25.866,33.948v2.089c0.022-0.015,0.045-0.031,0.067-0.046v-2.088
		C25.911,33.918,25.888,33.933,25.866,33.948z"/>
	<path style="fill:#0070AD;" d="M25.933,33.903v2.088c0.022-0.015,0.045-0.031,0.067-0.046v-2.087
		C25.978,33.873,25.955,33.888,25.933,33.903z"/>
	<path style="fill:#006FAC;" d="M26,33.858v2.087c0.022-0.015,0.045-0.031,0.067-0.046v-2.088
		C26.045,33.827,26.023,33.843,26,33.858z"/>
	<path style="fill:#006EAB;" d="M26.067,33.811v2.088c0.022-0.015,0.045-0.031,0.067-0.046v-2.09
		C26.112,33.779,26.09,33.795,26.067,33.811z"/>
	<path style="fill:#006DAA;" d="M26.135,33.764v2.09c0.022-0.015,0.045-0.031,0.067-0.046v-2.091
		C26.179,33.732,26.157,33.748,26.135,33.764z"/>
	<path style="fill:#006CA9;" d="M35.975,16.847c-0.29-0.139-11.461-6.037-11.74-6.175c-0.578,0.263-11.974,5.533-12.218,5.678
		c0,0,0.198,2.096,0.564,3.743c0.142,0.64,0.781,3.432,1.078,4.173c0.026-0.081,0.277-0.872,0.674-1.553
		c0.319-0.548,0.778-0.99,0.944-1.198c0,0-0.306-1.401-0.342-1.614c-0.107-0.638-0.171-1.502-0.171-1.587
		c0.573-0.295,1.126-0.589,1.687-0.866c0.614-0.303,1.237-0.587,1.854-0.884c0.722-0.349,1.44-0.707,2.163-1.053
		c0.787-0.376,1.576-0.746,2.367-1.113c0.406-0.189,0.819-0.365,1.216-0.541c3.235,1.497,6.4,3.024,9.559,4.652
		c0.021,0.137,0.067,0.289,0.064,0.441c-0.054,3.339-0.973,6.816-2.627,9.711c-0.991,1.735-2.278,3.081-3.748,4.244
		c-0.334,0.264-0.677,0.519-1.028,0.766c-0.022,0.016-0.045,0.032-0.067,0.047v2.091c0.022-0.016,0.045-0.031,0.067-0.046
		c0.503-0.353,0.993-0.719,1.471-1.1c1.741-1.389,3.293-2.985,4.5-4.936C34.515,26.044,36.124,21.208,35.975,16.847z"/>
</g>
</svg>
