<svg width="41" height="40" viewBox="0 0 41 40" fill="none" xmlns="http://www.w3.org/2000/svg">
<g clip-path="url(#clip0_232_515)">
<path d="M39.8159 20.2782C39.8159 30.865 31.093 39.4608 20.3159 39.4608C9.53879 39.4608 0.815918 30.865 0.815918 20.2782C0.815918 9.69153 9.53879 1.0957 20.3159 1.0957C31.093 1.0957 39.8159 9.69153 39.8159 20.2782Z" stroke="white"/>
<path fill-rule="evenodd" clip-rule="evenodd" d="M17.3826 16.4335C17.3826 14.8327 18.7026 13.5468 20.3159 13.5468C21.9292 13.5468 23.2492 14.8458 23.2492 16.4335C23.2492 18.0212 21.9292 19.3203 20.3159 19.3203C18.7026 19.3203 17.3826 18.0212 17.3826 16.4335ZM22.3959 19.7008C23.5026 19.0185 24.2226 17.8113 24.2226 16.4335C24.2226 14.3078 22.4759 12.5889 20.3159 12.5889C18.1559 12.5889 16.4092 14.3078 16.4092 16.4335C16.4092 17.8113 17.1426 19.0185 18.2359 19.7008C16.0226 20.5275 14.4492 22.6401 14.4492 25.107V26.0648C14.4492 27.1277 15.3292 27.9937 16.4092 27.9937H24.2359C25.3159 27.9937 26.1959 27.1277 26.1959 26.0648V25.107C26.1959 22.6401 24.6226 20.5275 22.4092 19.7008H22.3959ZM20.3159 20.2913C17.6092 20.2913 15.4226 22.4433 15.4226 25.107V26.0648C15.4226 26.6028 15.8626 27.0227 16.3959 27.0227H24.2226C24.7692 27.0227 25.1959 26.5897 25.1959 26.0648V25.107C25.1959 22.4433 23.0092 20.2913 20.3026 20.2913H20.3159Z" fill="white"/>
</g>
<defs>
<clipPath id="clip0_232_515">
<rect width="40" height="39.3651" fill="white" transform="translate(0.315918 0.595703)"/>
</clipPath>
</defs>
</svg>
