<svg width="63" height="69" viewBox="0 0 63 69" fill="none" xmlns="http://www.w3.org/2000/svg">
<g style="mix-blend-mode:soft-light" clip-path="url(#clip0_18_12)">
<path d="M45.2451 30.0395C45.2613 30.0105 45.2742 29.9799 45.2887 29.9493C45.3129 29.8978 45.3387 29.8479 45.3613 29.7948C45.3791 29.7529 45.3936 29.7094 45.4081 29.6676C45.4226 29.6257 45.4404 29.5838 45.4533 29.5404C45.471 29.4824 45.4839 29.4228 45.4985 29.3649C45.5049 29.3359 45.513 29.3085 45.5194 29.2779C45.5937 28.9076 45.5937 28.5261 45.5194 28.1558C45.5162 28.1413 45.513 28.1284 45.5098 28.1139C45.4936 28.0399 45.4759 27.9642 45.4533 27.8917C45.4452 27.866 45.4355 27.8418 45.4275 27.8161C45.4065 27.7549 45.3855 27.6953 45.3613 27.6358C45.3484 27.6052 45.3323 27.5746 45.3194 27.544C45.2952 27.4925 45.2726 27.441 45.2451 27.3894C45.2258 27.3524 45.2032 27.317 45.1806 27.2816C45.1548 27.2397 45.1322 27.1978 45.1048 27.156C45.0709 27.1061 45.0354 27.0594 44.9983 27.0111C44.9789 26.9853 44.9611 26.9596 44.9418 26.9354C44.8805 26.8614 44.8159 26.7889 44.7482 26.7213L35.7171 17.7102C34.6134 16.609 32.8288 16.609 31.7236 17.7102C30.6183 18.8114 30.6199 20.5921 31.7236 21.6949L35.9398 25.9018H20.1608C18.6022 25.9018 17.3371 27.1608 17.3371 28.7193C17.3371 30.2777 18.6022 31.5368 20.1608 31.5368H35.9333L31.7171 35.7436C30.6134 36.8449 30.6134 38.6255 31.7171 39.7284C32.2673 40.2774 32.9902 40.5543 33.7131 40.5543C34.4359 40.5543 35.1588 40.2806 35.709 39.7284L44.7191 30.7382C44.8627 30.5981 44.9918 30.4436 45.1031 30.2745C45.1128 30.2616 45.1193 30.2472 45.129 30.2327C45.1693 30.1699 45.208 30.1071 45.2419 30.0411L45.2451 30.0395Z" fill="white"/>
<path d="M31.4557 0.306274C14.3295 0.306274 0.394836 12.9978 0.394836 28.5986C0.394836 36.8433 4.25445 44.5149 11.0491 49.9019L8.89664 64.944C8.73045 66.1016 9.29519 67.2382 10.315 67.8033C10.7442 68.0432 11.2185 68.1608 11.6897 68.1608C12.3367 68.1608 12.9805 67.9386 13.4969 67.5087L26.6731 56.5512C28.2544 56.7765 29.8615 56.8892 31.4557 56.8892C48.582 56.8892 62.5166 44.1993 62.5166 28.597C62.5166 12.9946 48.582 0.306274 31.4557 0.306274ZM31.4557 51.2575C29.7502 51.2575 28.0366 51.103 26.3585 50.8003C25.5372 50.6425 24.6901 50.876 24.0431 51.4056L15.5203 58.4944L16.8724 49.0534C17.0225 48.0086 16.5723 46.9653 15.7091 46.3535C9.56465 42.0146 6.04066 35.5424 6.04066 28.6002C6.04066 16.1051 17.442 5.94284 31.4541 5.94284C45.4678 5.94284 56.8676 16.1067 56.8676 28.5986C56.8676 41.0904 45.4678 51.2559 31.4541 51.2559L31.4557 51.2575Z" fill="white"/>
</g>
<defs>
<clipPath id="clip0_18_12">
<rect width="62.1218" height="67.8561" fill="white" transform="translate(0.394836 0.306274)"/>
</clipPath>
</defs>
</svg>
