<svg width="40" height="40" viewBox="0 0 40 40" fill="none" xmlns="http://www.w3.org/2000/svg">
<circle cx="20" cy="20" r="19.5" stroke="white"/>
<path fill-rule="evenodd" clip-rule="evenodd" d="M22 18C22 19.1046 21.1046 20 20 20C18.8954 20 18 19.1046 18 18C18 16.8954 18.8954 16 20 16C21.1046 16 22 16.8954 22 18ZM21 18C21 18.5523 20.5523 19 20 19C19.4477 19 19 18.5523 19 18C19 17.4477 19.4477 17 20 17C20.5523 17 21 17.4477 21 18Z" fill="white"/>
<path fill-rule="evenodd" clip-rule="evenodd" d="M26 18C26 21.1578 22.2605 25.5621 20.6859 27.2768C20.3123 27.6835 19.6877 27.6835 19.3141 27.2768C17.7395 25.5621 14 21.1578 14 18C14 14.6863 16.6863 12 20 12C23.3137 12 26 14.6863 26 18ZM25 18C25 19.2585 24.2218 20.9318 23.0995 22.6277C22.0328 24.2396 20.7758 25.6967 20 26.5451C19.2242 25.6967 17.9672 24.2396 16.9005 22.6277C15.7782 20.9318 15 19.2585 15 18C15 15.2386 17.2386 13 20 13C22.7614 13 25 15.2386 25 18Z" fill="white"/>
</svg>
