<svg width="20" height="20" viewBox="0 0 20 20" fill="none" xmlns="http://www.w3.org/2000/svg">
<path fill-rule="evenodd" clip-rule="evenodd" d="M5.75542 6.79393C7.04759 9.36859 10.6311 12.952 13.2057 14.2442L15.0005 12.5314C15.5333 12.0232 16.3762 12.0329 16.897 12.5536L19.6024 15.2591C19.8801 15.5368 20.0142 15.8799 19.9988 16.2723C19.9831 16.6647 19.822 16.9965 19.5233 17.2508L16.3003 19.9995C10.3981 20.0858 -0.0894446 9.78156 0.000575761 3.69974L2.74922 0.476772C3.00395 0.177646 3.33537 0.0169823 3.72774 0.00123888C4.12012 -0.0145046 4.46324 0.11992 4.74097 0.397651L7.44643 3.1031C7.96717 3.62385 7.97686 4.46673 7.46863 4.99958L5.75542 6.79393Z" fill="#C0C0C0"/>
</svg>
