<?xml version="1.0" encoding="iso-8859-1"?>
<!-- Generator: Adobe Illustrator 26.3.1, SVG Export Plug-In . SVG Version: 6.00 Build 0)  -->
<svg version="1.1" id="Layer_1" xmlns="http://www.w3.org/2000/svg" xmlns:xlink="http://www.w3.org/1999/xlink" x="0px" y="0px"
	 width="30px" height="30px" viewBox="0 0 30 30" style="enable-background:new 0 0 30 30;" xml:space="preserve">
<g>
	<path style="fill:#FFFFFF;" d="M15,1c7.72,0,14,6.28,14,14s-6.28,14-14,14S1,22.72,1,15S7.28,1,15,1 M15,0C6.729,0,0,6.729,0,15
		c0,8.271,6.729,15,15,15c8.271,0,15-6.729,15-15C30,6.729,23.271,0,15,0L15,0z"/>
</g>
<path style="fill:#FFFFFF;" d="M21.221,13.938h-5.093l-0.001-5.093c0-0.434-0.352-0.785-0.785-0.785h0
	c-0.434,0-0.785,0.352-0.785,0.785v5.095l-5.095-0.001c-0.434,0-0.787,0.352-0.786,0.787v0c0,0.434,0.352,0.785,0.786,0.785
	l5.093,0.001l0.001,5.095c0,0.434,0.352,0.786,0.787,0.786h0c0.434,0,0.785-0.352,0.785-0.786v-5.095l5.093-0.001
	c0.434,0,0.786-0.352,0.786-0.785v0C22.007,14.29,21.655,13.938,21.221,13.938z"/>
</svg>
