<?xml version="1.0" encoding="iso-8859-1"?>
<!-- Generator: Adobe Illustrator 26.3.1, SVG Export Plug-In . SVG Version: 6.00 Build 0)  -->
<svg version="1.1" id="Layer_1" xmlns="http://www.w3.org/2000/svg" xmlns:xlink="http://www.w3.org/1999/xlink" x="0px" y="0px"
	 width="40px" height="40px" viewBox="0 0 40 40" style="enable-background:new 0 0 40 40;" xml:space="preserve">
<path style="fill-rule:evenodd;clip-rule:evenodd;fill:#FFFFFF;" d="M22,20.194c0,1.105-0.895,2-2,2s-2-0.895-2-2s0.895-2,2-2
	S22,19.089,22,20.194z M21,20.194c0,0.552-0.448,1-1,1s-1-0.448-1-1s0.448-1,1-1S21,19.642,21,20.194z"/>
<path style="fill-rule:evenodd;clip-rule:evenodd;fill:#FFFFFF;" d="M26,18.209c0,3.158-3.74,7.562-5.314,9.277
	c-0.374,0.407-0.998,0.407-1.372,0C17.74,25.771,14,21.367,14,18.209c0-3.314,2.686-6,6-6S26,14.895,26,18.209z M25,18.209
	c0,1.258-0.778,2.932-1.9,4.628c-1.067,1.612-2.324,3.069-3.1,3.917c-0.776-0.848-2.033-2.306-3.1-3.917
	c-1.122-1.696-1.9-3.369-1.9-4.628c0-2.761,2.239-5,5-5S25,15.448,25,18.209z"/>
<g>
	<path style="fill:#FFFFFF;" d="M20,1.333c10.293,0,18.667,8.374,18.667,18.667S30.293,38.667,20,38.667S1.333,30.293,1.333,20
		S9.707,1.333,20,1.333 M20,0C8.972,0,0,8.972,0,20c0,11.028,8.972,20,20,20c11.028,0,20-8.972,20-20C40,8.972,31.028,0,20,0L20,0z"
		/>
</g>
</svg>
