<?xml version="1.0" encoding="iso-8859-1"?>
<!-- Generator: Adobe Illustrator 26.3.1, SVG Export Plug-In . SVG Version: 6.00 Build 0)  -->
<svg version="1.1" id="Layer_1" xmlns="http://www.w3.org/2000/svg" xmlns:xlink="http://www.w3.org/1999/xlink" x="0px" y="0px"
	 width="48px" height="48px" viewBox="0 0 48 48" style="enable-background:new 0 0 48 48;" xml:space="preserve">
<circle style="fill:#2A233B;" cx="24" cy="24" r="24"/>
<g>
	<path style="fill:none;" d="M31.147,26.75c-1.58-0.3-2.947,1.06-2.647,2.647c0.167,0.88,0.887,1.6,1.767,1.767
		c1.58,0.3,2.947-1.06,2.647-2.647C32.747,27.637,32.027,26.917,31.147,26.75z"/>
	
		<line style="fill:none;stroke:#01A0C6;stroke-width:0;stroke-linecap:round;stroke-linejoin:round;" x1="24.127" y1="29.55" x2="24.133" y2="29.55"/>
	<path style="fill:#00ADEE;" d="M21.46,29.55l-3.727,3.227V29.55h-4.3V15.223h20.06v8.06l1.433,0.647v-8.707
		c0-0.787-0.647-1.433-1.433-1.433h-20.06c-0.787,0-1.433,0.647-1.433,1.433V29.55c0,0.787,0.647,1.433,1.433,1.433h2.86v1.793
		c0,0.573,0.327,1.073,0.827,1.287c0.52,0.267,1.113,0.153,1.54-0.213l3.333-2.867h2.633l-0.5-1.433H21.46z"/>
	<path style="fill:#00ADEE;" d="M35.967,29.71L36,28.21l-1.753-0.473c-0.053-0.16-0.12-0.313-0.193-0.46l0.907-1.513l-1.06-1.06
		l-1.507,0.907c-0.167-0.087-0.34-0.153-0.513-0.213l-0.42-1.687h-1.507l-0.42,1.687c-0.193,0.06-0.373,0.14-0.553,0.233
		l-1.54-0.927l-1.06,1.06l0.947,1.573c-0.067,0.147-0.133,0.293-0.18,0.453l-1.687,0.42v1.5l1.687,0.42
		c0.047,0.153,0.107,0.3,0.173,0.44l-0.94,1.567l1.06,1.06l1.52-0.913c0.18,0.093,0.373,0.18,0.573,0.24l0.42,1.687h1.5l0.42-1.687
		c0.187-0.06,0.36-0.133,0.533-0.22l1.493,0.893l1.06-1.06l-0.9-1.5c0.087-0.173,0.16-0.353,0.22-0.54L35.967,29.71z M30.267,31.163
		c-0.88-0.167-1.6-0.887-1.767-1.767c-0.3-1.587,1.067-2.947,2.647-2.647c0.88,0.167,1.6,0.887,1.767,1.767
		C33.213,30.103,31.847,31.463,30.267,31.163z"/>
</g>
</svg>
